<?xml version="1.0" encoding="utf-8"?>
<!-- Generator: Adobe Illustrator 16.0.0, SVG Export Plug-In . SVG Version: 6.00 Build 0)  -->
<!DOCTYPE svg PUBLIC "-//W3C//DTD SVG 1.1//EN" "http://www.w3.org/Graphics/SVG/1.1/DTD/svg11.dtd">
<svg version="1.1" xmlns="http://www.w3.org/2000/svg" xmlns:xlink="http://www.w3.org/1999/xlink" x="0px" y="0px"
	 width="28.001px" height="28.002px" viewBox="170 40.458 28.001 28.002" enable-background="new 170 40.458 28.001 28.002"
	 xml:space="preserve">
<path d="M196.833,40.458h-25.666c-0.646,0-1.167,0.522-1.167,1.167v25.668c0,0.645,0.521,1.167,1.167,1.167h13.708v-10.5h-3.5
	v-4.376h3.5v-3.5c0-3.616,2.29-5.396,5.516-5.396c1.547,0,2.875,0.115,3.262,0.166v3.779l-2.238,0.002
	c-1.754,0-2.163,0.833-2.163,2.057v2.893h4.375l-0.875,4.376h-3.5l0.069,10.5h7.514c0.645,0,1.167-0.522,1.167-1.167V41.625
	C198,40.98,197.479,40.458,196.833,40.458"/>
</svg>
