<?xml version="1.0" encoding="utf-8"?>
<!-- Generator: Adobe Illustrator 16.0.0, SVG Export Plug-In . SVG Version: 6.00 Build 0)  -->
<!DOCTYPE svg PUBLIC "-//W3C//DTD SVG 1.1//EN" "http://www.w3.org/Graphics/SVG/1.1/DTD/svg11.dtd">
<svg version="1.1" xmlns="http://www.w3.org/2000/svg" xmlns:xlink="http://www.w3.org/1999/xlink" x="0px" y="0px"
	 width="28px" height="28px" viewBox="186 86 28 28" enable-background="new 186 86 28 28" xml:space="preserve">
<path d="M212.833,86h-25.666c-0.646,0-1.167,0.521-1.167,1.167v25.666c0,0.646,0.521,1.167,1.167,1.167h25.666
	c0.646,0,1.167-0.521,1.167-1.167V87.167C214,86.521,213.479,86,212.833,86 M194.167,104.667c-2.578,0-4.667-2.09-4.667-4.666
	c0-2.578,2.089-4.668,4.667-4.668c2.576,0,4.667,2.09,4.667,4.668C198.833,102.577,196.743,104.667,194.167,104.667
	 M205.833,104.667c-2.577,0-4.666-2.09-4.666-4.666c0-2.578,2.089-4.668,4.666-4.668c2.578,0,4.667,2.09,4.667,4.668
	C210.5,102.577,208.411,104.667,205.833,104.667"/>
</svg>
