<?xml version="1.0" encoding="utf-8"?>
<!-- Generator: Adobe Illustrator 16.0.0, SVG Export Plug-In . SVG Version: 6.00 Build 0)  -->
<!DOCTYPE svg PUBLIC "-//W3C//DTD SVG 1.1//EN" "http://www.w3.org/Graphics/SVG/1.1/DTD/svg11.dtd">
<svg version="1.1" xmlns="http://www.w3.org/2000/svg" xmlns:xlink="http://www.w3.org/1999/xlink" x="0px" y="0px"
	 width="28.002px" height="26.004px" viewBox="185.999 86.998 28.002 26.004" enable-background="new 185.999 86.998 28.002 26.004"
	 xml:space="preserve">
<path d="M198.826,88.23c0.222,0.133,0.472,0.327,0.75,0.583c0.269,0.267,0.528,0.595,0.784,0.981c0.244,0.367,0.459,0.8,0.649,1.301
	c0.155,0.5,0.232,1.083,0.232,1.749c-0.021,1.222-0.298,2.198-0.837,2.933c-0.264,0.354-0.543,0.682-0.838,0.982
	c-0.328,0.3-0.676,0.604-1.045,0.916c-0.211,0.211-0.405,0.449-0.584,0.716c-0.211,0.276-0.316,0.601-0.316,0.967
	c0,0.354,0.107,0.647,0.324,0.884c0.183,0.221,0.361,0.416,0.537,0.582l1.199,0.949c0.746,0.59,1.4,1.238,1.963,1.949
	c0.529,0.722,0.807,1.666,0.828,2.832c0,1.654-0.76,3.122-2.271,4.398c-1.57,1.32-3.838,2.004-6.799,2.049
	c-2.479-0.021-4.33-0.531-5.553-1.53c-1.232-0.931-1.852-2.044-1.852-3.343c0-0.631,0.201-1.336,0.604-2.111
	c0.389-0.775,1.094-1.457,2.114-2.045c1.146-0.631,2.351-1.053,3.612-1.264c1.25-0.179,2.285-0.277,3.111-0.299
	c-0.254-0.324-0.482-0.672-0.683-1.041c-0.231-0.355-0.349-0.787-0.349-1.289c0-0.301,0.044-0.553,0.133-0.754
	c0.078-0.213,0.15-0.408,0.216-0.586c-0.401,0.045-0.778,0.067-1.137,0.067c-1.884-0.022-3.319-0.595-4.308-1.718
	c-1.035-1.043-1.551-2.26-1.551-3.646c0-1.678,0.732-3.198,2.196-4.565c1.007-0.799,2.052-1.32,3.138-1.564
	c1.072-0.21,2.078-0.316,3.019-0.316h7.077l-2.185,1.23h-2.187v0.002H198.826z M200.194,107.889c0-0.867-0.293-1.622-0.881-2.267
	c-0.619-0.61-1.588-1.359-2.906-2.248c-0.225-0.022-0.489-0.033-0.795-0.033c-0.182-0.021-0.643,0-1.387,0.066
	c-0.73,0.1-1.48,0.262-2.248,0.483c-0.181,0.067-0.434,0.166-0.761,0.301c-0.327,0.144-0.657,0.349-0.997,0.615
	c-0.326,0.276-0.604,0.621-0.828,1.034c-0.26,0.431-0.39,0.953-0.39,1.564c0,1.2,0.563,2.188,1.69,2.967
	c1.07,0.776,2.535,1.179,4.396,1.198c1.668-0.021,2.942-0.376,3.819-1.065C199.767,109.828,200.194,108.957,200.194,107.889
	 M195.259,97.876c0.932-0.031,1.708-0.355,2.329-0.969c0.3-0.433,0.492-0.878,0.578-1.334c0.051-0.455,0.077-0.84,0.077-1.15
	c0-1.348-0.357-2.707-1.071-4.073c-0.334-0.656-0.772-1.19-1.319-1.603c-0.559-0.391-1.199-0.597-1.926-0.619
	c-0.959,0.022-1.758,0.396-2.393,1.119c-0.536,0.758-0.793,1.604-0.77,2.537c0,1.234,0.375,2.521,1.125,3.855
	c0.36,0.623,0.829,1.15,1.403,1.585C193.865,97.662,194.521,97.876,195.259,97.876"/>
<polygon points="214.001,99.125 210.501,99.125 210.501,95.625 208.751,95.625 208.751,99.125 205.251,99.125 205.251,100.875
	208.751,100.875 208.751,104.375 210.501,104.375 210.501,100.875 214.001,100.875 "/>
</svg>
