<?xml version="1.0" encoding="utf-8"?>
<!-- Generator: Adobe Illustrator 16.0.0, SVG Export Plug-In . SVG Version: 6.00 Build 0)  -->
<!DOCTYPE svg PUBLIC "-//W3C//DTD SVG 1.1//EN" "http://www.w3.org/Graphics/SVG/1.1/DTD/svg11.dtd">
<svg version="1.1" xmlns="http://www.w3.org/2000/svg" xmlns:xlink="http://www.w3.org/1999/xlink" x="0px" y="0px"
	 width="28px" height="28px" viewBox="7 7 28 28" enable-background="new 7 7 28 28" xml:space="preserve">
<path d="M31.672,7H10.328C8.489,7,7,8.486,7,10.32v21.36C7,33.514,8.489,35,10.328,35h21.345C33.512,35,35,33.516,35,31.682V10.32
	C35,8.486,33.509,7,31.672,7 M28,10.5h2.625c0.482,0,0.876,0.392,0.876,0.875V14c0,0.483-0.394,0.875-0.876,0.875H28
	c-0.484,0-0.875-0.393-0.875-0.875v-2.625C27.126,10.891,27.52,10.5,28,10.5 M21.031,15.66c2.974,0,5.386,2.404,5.386,5.372
	s-2.412,5.374-5.386,5.374c-2.973,0-5.385-2.404-5.385-5.374C15.646,18.064,18.059,15.66,21.031,15.66 M31.5,32.375h-21
	c-0.483,0-0.875-0.393-0.875-0.875V18.375h3.5c-0.457,0.656-0.61,1.88-0.61,2.657c0,4.686,3.821,8.497,8.517,8.497
	c4.698,0,8.517-3.812,8.517-8.498c0-0.776-0.109-1.983-0.674-2.656h3.5V31.5C32.376,31.982,31.98,32.375,31.5,32.375"/>
</svg>
