<?xml version="1.0" encoding="utf-8"?>
<!-- Generator: Adobe Illustrator 16.0.0, SVG Export Plug-In . SVG Version: 6.00 Build 0)  -->
<!DOCTYPE svg PUBLIC "-//W3C//DTD SVG 1.1//EN" "http://www.w3.org/Graphics/SVG/1.1/DTD/svg11.dtd">
<svg version="1.1" xmlns="http://www.w3.org/2000/svg" xmlns:xlink="http://www.w3.org/1999/xlink" x="0px" y="0px"
	 width="28px" height="28.001px" viewBox="186 86.001 28 28.001" enable-background="new 186 86.001 28 28.001"
	 xml:space="preserve">
<path d="M200,86.001c-7.732,0-14,6.268-14,14c0,5.93,3.69,10.997,8.898,13.038c-0.122-1.109-0.232-2.808,0.049-4.018
	c0.255-1.092,1.642-6.958,1.642-6.958s-0.419-0.839-0.419-2.079c0-1.946,1.129-3.399,2.533-3.399c1.194,0,1.771,0.896,1.771,1.972
	c0,1.201-0.765,2.997-1.159,4.66c-0.329,1.395,0.698,2.531,2.072,2.531c2.488,0,4.401-2.625,4.401-6.411
	c0-3.352-2.409-5.695-5.847-5.695c-3.983,0-6.321,2.987-6.321,6.076c0,1.202,0.463,2.493,1.041,3.194
	c0.115,0.139,0.131,0.26,0.098,0.402c-0.105,0.441-0.342,1.394-0.389,1.588c-0.062,0.256-0.203,0.311-0.469,0.188
	c-1.748-0.816-2.842-3.371-2.842-5.425c0-4.416,3.209-8.472,9.25-8.472c4.856,0,8.632,3.46,8.632,8.086
	c0,4.823-3.043,8.707-7.266,8.707c-1.418,0-2.751-0.736-3.208-1.607c0,0-0.701,2.674-0.873,3.328
	c-0.316,1.215-1.168,2.738-1.74,3.67c1.311,0.405,2.703,0.625,4.146,0.625c7.733,0,13.999-6.268,13.999-13.999
	C214,92.269,207.733,86.001,200,86.001"/>
</svg>
