<?xml version="1.0" encoding="utf-8"?>
<!-- Generator: Adobe Illustrator 16.0.0, SVG Export Plug-In . SVG Version: 6.00 Build 0)  -->
<!DOCTYPE svg PUBLIC "-//W3C//DTD SVG 1.1//EN" "http://www.w3.org/Graphics/SVG/1.1/DTD/svg11.dtd">
<svg version="1.1" xmlns="http://www.w3.org/2000/svg" xmlns:xlink="http://www.w3.org/1999/xlink" x="0px" y="0px"
	 width="28px" height="22.756px" viewBox="186 88.623 28 22.756" enable-background="new 186 88.623 28 22.756"
	 xml:space="preserve">
<path d="M214,91.317c-1.03,0.456-2.138,0.765-3.3,0.904c1.187-0.712,2.098-1.837,2.526-3.179c-1.109,0.658-2.34,1.136-3.647,1.394
	c-1.048-1.116-2.542-1.813-4.194-1.813c-3.173,0-5.743,2.571-5.743,5.744c0,0.45,0.051,0.889,0.148,1.31
	c-4.775-0.24-9.009-2.526-11.841-6.003c-0.495,0.849-0.778,1.836-0.778,2.89c0,1.992,1.014,3.751,2.556,4.781
	c-0.941-0.03-1.827-0.288-2.602-0.719c-0.001,0.024-0.001,0.048-0.001,0.072c0,2.783,1.98,5.104,4.609,5.632
	c-0.481,0.131-0.989,0.202-1.515,0.202c-0.369,0-0.729-0.036-1.081-0.102c0.731,2.283,2.854,3.943,5.368,3.988
	c-1.967,1.542-4.443,2.459-7.136,2.459c-0.464,0-0.921-0.027-1.37-0.08c2.542,1.631,5.562,2.581,8.807,2.581
	c10.567,0,16.345-8.754,16.345-16.346c0-0.249-0.006-0.496-0.015-0.743C212.257,93.479,213.232,92.469,214,91.317"/>
</svg>
